<?xml version="1.0" encoding="UTF-8" ?>
<!DOCTYPE svg PUBLIC "-//W3C//DTD SVG 1.1//EN" "http://www.w3.org/Graphics/SVG/1.1/DTD/svg11.dtd">
<svg width="512pt" height="512pt" viewBox="0 0 512 512" version="1.1" xmlns="http://www.w3.org/2000/svg">
<g id="#00005bff">
<path fill="#00005b" opacity="1.00" d=" M 13.91 48.81 C 30.26 22.39 60.90 5.68 91.99 6.40 C 202.01 6.41 312.03 6.37 422.05 6.42 C 448.57 6.44 474.68 18.94 491.38 39.52 C 503.67 54.25 510.65 72.97 512.00 92.04 L 512.00 419.07 C 510.92 438.43 503.84 457.47 491.42 472.43 C 474.72 493.04 448.59 505.55 422.06 505.58 C 312.05 505.63 202.05 505.59 92.04 505.60 C 83.23 505.65 74.39 504.58 65.91 502.15 C 43.12 495.76 23.17 480.01 11.63 459.35 C 4.65 447.14 0.90 433.27 0.00 419.27 L 0.00 92.33 C 1.06 76.98 5.60 61.81 13.91 48.81 M 135.50 139.93 C 135.60 150.50 131.12 160.21 127.85 170.03 C 106.50 231.28 85.13 292.52 63.79 353.77 C 63.23 355.26 62.64 358.01 64.93 358.25 C 78.29 358.61 91.67 358.30 105.03 358.40 C 107.30 358.69 109.74 357.53 110.23 355.16 C 115.63 338.48 120.97 321.78 126.32 305.09 C 152.78 305.05 179.24 305.06 205.70 305.08 C 211.40 321.72 217.15 338.35 222.85 354.99 C 223.31 356.44 224.09 358.37 225.94 358.32 C 239.97 358.53 254.00 358.32 268.03 358.42 C 269.71 358.35 271.47 358.59 273.09 357.97 C 274.25 356.55 273.11 354.77 272.77 353.29 C 246.97 281.08 221.27 208.84 195.49 136.63 C 195.24 134.87 193.48 134.45 191.97 134.60 C 173.98 134.61 155.99 134.58 138.01 134.62 C 134.99 134.35 135.68 138.04 135.50 139.93 M 322.54 197.51 C 307.31 207.10 296.30 222.48 290.24 239.26 C 282.05 262.08 282.04 287.60 289.67 310.57 C 295.56 327.67 307.50 342.78 323.33 351.70 C 337.39 359.85 353.88 362.58 369.95 362.63 C 386.83 362.71 404.05 360.98 419.88 354.80 C 422.05 354.09 424.65 352.75 424.42 350.04 C 424.35 338.29 424.81 326.50 424.17 314.76 C 413.24 319.13 401.52 320.92 389.90 322.20 C 375.81 323.70 360.87 321.79 348.62 314.31 C 338.71 308.17 333.58 296.74 332.11 285.53 C 349.07 285.54 366.03 285.53 382.99 285.53 C 391.64 285.63 400.32 285.22 408.95 286.00 C 417.63 286.65 426.32 285.60 434.97 284.95 C 436.55 284.99 437.83 283.52 437.86 282.00 C 439.37 268.57 440.19 254.80 437.23 241.50 C 434.34 228.36 428.47 215.63 419.25 205.73 C 407.30 193.24 390.02 187.10 373.04 186.00 C 355.62 184.91 337.44 188.04 322.54 197.51 Z" />
<path fill="#00005b" opacity="1.00" d=" M 165.64 173.39 C 174.92 203.12 183.86 232.95 192.97 262.73 C 174.88 262.73 156.79 262.74 138.71 262.72 C 147.68 232.95 156.59 203.15 165.64 173.39 Z" />
<path fill="#00005b" opacity="1.00" d=" M 341.36 232.38 C 352.94 219.56 376.02 219.24 387.34 232.56 C 392.14 237.96 394.32 245.24 394.34 252.38 C 392.05 253.57 389.52 254.20 386.93 254.10 C 368.65 254.31 350.36 254.16 332.08 254.19 C 333.35 246.36 335.86 238.32 341.36 232.38 Z" />
</g>
<g id="#9999ffff">
<path fill="#9999ff" opacity="1.00" d=" M 135.50 139.93 C 135.68 138.04 134.99 134.35 138.01 134.62 C 155.99 134.58 173.98 134.61 191.97 134.60 C 193.48 134.45 195.24 134.87 195.49 136.63 C 221.27 208.84 246.97 281.08 272.77 353.29 C 273.11 354.77 274.25 356.55 273.09 357.97 C 271.47 358.59 269.71 358.35 268.03 358.42 C 254.00 358.32 239.97 358.53 225.94 358.32 C 224.09 358.37 223.31 356.44 222.85 354.99 C 217.15 338.35 211.40 321.72 205.70 305.08 C 179.24 305.06 152.78 305.05 126.32 305.09 C 120.97 321.78 115.63 338.48 110.23 355.16 C 109.74 357.53 107.30 358.69 105.03 358.40 C 91.67 358.30 78.29 358.61 64.93 358.25 C 62.64 358.01 63.23 355.26 63.79 353.77 C 85.13 292.52 106.50 231.28 127.85 170.03 C 131.12 160.21 135.60 150.50 135.50 139.93 M 165.64 173.39 C 156.59 203.15 147.68 232.95 138.71 262.72 C 156.79 262.74 174.88 262.73 192.97 262.73 C 183.86 232.95 174.92 203.12 165.64 173.39 Z" />
<path fill="#9999ff" opacity="1.00" d=" M 322.54 197.51 C 337.44 188.04 355.62 184.91 373.04 186.00 C 390.02 187.10 407.30 193.24 419.25 205.73 C 428.47 215.63 434.34 228.36 437.23 241.50 C 440.19 254.80 439.37 268.57 437.86 282.00 C 437.83 283.52 436.55 284.99 434.97 284.95 C 426.32 285.60 417.63 286.65 408.95 286.00 C 400.32 285.22 391.64 285.63 382.99 285.53 C 366.03 285.53 349.07 285.54 332.11 285.53 C 333.58 296.74 338.71 308.17 348.62 314.31 C 360.87 321.79 375.81 323.70 389.90 322.20 C 401.52 320.92 413.24 319.13 424.17 314.76 C 424.81 326.50 424.35 338.29 424.42 350.04 C 424.65 352.75 422.05 354.09 419.88 354.80 C 404.05 360.98 386.83 362.71 369.95 362.63 C 353.88 362.58 337.39 359.85 323.33 351.70 C 307.50 342.78 295.56 327.67 289.67 310.57 C 282.04 287.60 282.05 262.08 290.24 239.26 C 296.30 222.48 307.31 207.10 322.54 197.51 M 341.36 232.38 C 335.86 238.32 333.35 246.36 332.08 254.19 C 350.36 254.16 368.65 254.31 386.93 254.10 C 389.52 254.20 392.05 253.57 394.34 252.38 C 394.32 245.24 392.14 237.96 387.34 232.56 C 376.02 219.24 352.94 219.56 341.36 232.38 Z" />
</g>
</svg>
