<?xml version="1.0" encoding="UTF-8" ?>
<!DOCTYPE svg PUBLIC "-//W3C//DTD SVG 1.1//EN" "http://www.w3.org/Graphics/SVG/1.1/DTD/svg11.dtd">
<svg width="512pt" height="512pt" viewBox="0 0 512 512" version="1.1" xmlns="http://www.w3.org/2000/svg">
<g id="#390000ff">
<path fill="#390000" opacity="1.00" d=" M 76.09 7.58 C 84.97 6.04 94.01 6.45 102.98 6.40 C 204.65 6.40 306.31 6.40 407.98 6.40 C 417.64 6.47 427.39 5.97 436.95 7.75 C 460.54 11.69 482.18 25.60 495.76 45.25 C 505.60 59.20 511.04 76.00 512.00 93.00 L 512.00 419.16 C 511.04 434.91 506.34 450.49 497.74 463.77 C 481.50 489.61 451.53 505.98 421.00 505.59 C 311.01 505.61 201.01 505.60 91.02 505.59 C 67.93 505.77 44.95 496.68 28.27 480.71 C 11.38 464.92 1.27 442.45 0.00 419.41 L 0.00 93.77 C 0.79 73.88 8.15 54.28 20.98 39.03 C 34.78 22.39 54.71 10.93 76.09 7.58 M 359.33 117.32 C 349.31 118.37 340.01 125.45 337.13 135.23 C 333.97 146.13 337.09 159.58 346.89 166.11 C 356.98 172.88 371.96 172.42 380.92 163.89 C 391.81 153.61 391.99 134.22 381.24 123.77 C 375.51 118.20 367.06 116.52 359.33 117.32 M 178.15 136.90 C 178.08 144.02 177.11 151.15 174.56 157.83 C 151.88 223.29 129.09 288.72 106.39 354.17 C 106.06 355.50 105.83 356.86 105.68 358.24 C 107.38 358.86 109.15 359.20 110.96 359.09 C 123.65 358.97 136.35 359.20 149.04 358.98 C 150.88 359.06 152.15 357.46 152.59 355.83 C 158.00 339.22 163.34 322.58 168.74 305.97 C 195.20 305.91 221.66 305.92 248.12 305.96 C 253.95 322.79 259.68 339.65 265.55 356.46 C 266.39 359.87 270.44 358.95 273.05 359.08 C 287.29 358.81 301.57 359.55 315.78 358.70 C 315.77 357.31 315.92 355.88 315.36 354.57 C 289.64 281.99 263.91 209.42 238.21 136.83 C 237.87 135.30 236.82 133.95 235.09 134.24 C 217.03 134.16 198.96 134.21 180.90 134.21 C 179.24 133.86 177.81 135.22 178.15 136.90 M 339.19 189.11 C 338.19 190.10 338.43 191.62 338.34 192.89 C 338.36 244.92 338.35 296.95 338.35 348.98 C 338.41 351.76 338.10 354.60 338.62 357.36 C 339.14 359.29 341.44 359.25 343.05 359.28 C 356.37 359.23 369.70 359.33 383.01 359.23 C 385.54 359.65 386.36 357.01 386.13 355.02 C 386.15 302.69 386.12 250.35 386.14 198.02 C 386.10 195.38 386.32 192.71 385.89 190.10 C 385.37 188.44 383.42 188.67 382.07 188.59 C 369.38 188.59 356.68 188.63 343.99 188.58 C 342.39 188.70 340.65 188.32 339.19 189.11 Z" />
<path fill="#390000" opacity="1.00" d=" M 208.00 173.69 C 217.10 203.32 226.25 232.93 235.26 262.59 C 217.22 262.61 199.18 262.60 181.14 262.60 C 190.07 232.95 199.02 203.32 208.00 173.69 Z" />
</g>
<g id="#ff9a00ff">
<path fill="#ff9a00" opacity="1.00" d=" M 359.33 117.32 C 367.06 116.52 375.51 118.20 381.24 123.77 C 391.99 134.22 391.81 153.61 380.92 163.89 C 371.96 172.42 356.98 172.88 346.89 166.11 C 337.09 159.58 333.97 146.13 337.13 135.23 C 340.01 125.45 349.31 118.37 359.33 117.32 Z" />
<path fill="#ff9a00" opacity="1.00" d=" M 178.15 136.90 C 177.81 135.22 179.24 133.86 180.90 134.21 C 198.96 134.21 217.03 134.16 235.09 134.24 C 236.82 133.95 237.87 135.30 238.21 136.83 C 263.91 209.42 289.64 281.99 315.36 354.57 C 315.92 355.88 315.77 357.31 315.78 358.70 C 301.57 359.55 287.29 358.81 273.05 359.08 C 270.44 358.95 266.39 359.87 265.55 356.46 C 259.68 339.65 253.95 322.79 248.12 305.96 C 221.66 305.92 195.20 305.91 168.74 305.97 C 163.34 322.58 158.00 339.22 152.59 355.83 C 152.15 357.46 150.88 359.06 149.04 358.98 C 136.35 359.20 123.65 358.97 110.96 359.09 C 109.15 359.20 107.38 358.86 105.68 358.24 C 105.83 356.86 106.06 355.50 106.39 354.17 C 129.09 288.72 151.88 223.29 174.56 157.83 C 177.11 151.15 178.08 144.02 178.15 136.90 M 208.00 173.69 C 199.02 203.32 190.07 232.95 181.14 262.60 C 199.18 262.60 217.22 262.61 235.26 262.59 C 226.25 232.93 217.10 203.32 208.00 173.69 Z" />
<path fill="#ff9a00" opacity="1.00" d=" M 339.19 189.11 C 340.65 188.32 342.39 188.70 343.99 188.58 C 356.68 188.63 369.38 188.59 382.07 188.59 C 383.42 188.67 385.37 188.44 385.89 190.10 C 386.32 192.71 386.10 195.38 386.14 198.02 C 386.12 250.35 386.15 302.69 386.13 355.02 C 386.36 357.01 385.54 359.65 383.01 359.23 C 369.70 359.33 356.37 359.23 343.05 359.28 C 341.44 359.25 339.14 359.29 338.62 357.36 C 338.10 354.60 338.41 351.76 338.35 348.98 C 338.35 296.95 338.36 244.92 338.34 192.89 C 338.43 191.62 338.19 190.10 339.19 189.11 Z" />
</g>
</svg>
