<?xml version="1.0" encoding="UTF-8" ?>
<!DOCTYPE svg PUBLIC "-//W3C//DTD SVG 1.1//EN" "http://www.w3.org/Graphics/SVG/1.1/DTD/svg11.dtd">
<svg width="512pt" height="512pt" viewBox="0 0 512 512" version="1.1" xmlns="http://www.w3.org/2000/svg">
<g id="#001834ff">
<path fill="#001834" opacity="1.00" d=" M 78.96 7.16 C 84.95 6.34 91.01 6.38 97.04 6.40 C 205.36 6.42 313.67 6.38 421.99 6.42 C 450.02 6.37 477.55 20.37 494.11 42.96 C 505.02 57.48 511.13 75.35 512.00 93.44 L 512.00 419.96 C 510.66 438.77 503.88 457.27 491.87 471.90 C 475.19 492.84 448.81 505.56 422.03 505.58 C 311.70 505.62 201.36 505.59 91.02 505.59 C 72.46 505.69 53.90 499.94 38.72 489.25 C 21.67 477.39 8.91 459.49 3.36 439.46 C 1.54 433.18 0.71 426.68 0.00 420.20 L 0.00 92.00 C 1.34 72.25 8.86 52.89 21.91 37.93 C 36.29 21.13 57.00 9.88 78.96 7.16 M 117.02 134.71 C 115.14 134.43 115.25 136.78 115.20 137.97 C 115.22 210.67 115.17 283.38 115.22 356.09 C 114.96 357.77 116.09 359.56 118.00 359.23 C 131.34 359.31 144.70 359.26 158.04 359.25 C 159.98 359.57 161.85 358.06 161.47 356.02 C 161.54 333.28 161.45 310.53 161.51 287.79 C 180.69 288.42 200.21 288.91 218.97 284.12 C 235.35 280.30 250.71 271.40 261.21 258.13 C 270.93 246.32 275.48 231.03 276.26 215.93 C 277.61 196.60 272.42 176.27 259.63 161.39 C 248.10 147.86 231.35 139.70 214.14 136.17 C 200.29 133.21 186.05 133.18 171.96 133.39 C 153.65 133.74 135.33 134.25 117.02 134.71 M 347.88 187.78 C 334.33 190.13 321.07 196.34 311.89 206.78 C 301.36 218.60 297.39 235.70 301.02 251.04 C 304.10 264.19 313.73 275.02 325.15 281.79 C 335.30 288.43 346.68 292.69 357.89 297.12 C 364.24 300.00 371.54 302.35 375.68 308.36 C 378.69 312.56 376.75 318.81 372.47 321.34 C 368.38 323.66 363.59 324.31 358.98 324.70 C 342.89 325.62 326.66 322.39 311.84 316.19 C 307.70 314.67 304.18 311.77 299.88 310.66 C 299.55 312.06 299.26 313.49 299.29 314.94 C 299.36 326.64 299.26 338.35 299.33 350.05 C 299.14 351.87 300.31 353.52 301.97 354.22 C 306.40 356.37 311.10 357.91 315.83 359.27 C 331.19 363.06 347.16 364.49 362.95 363.32 C 379.11 362.05 395.98 357.46 407.98 345.99 C 417.61 337.07 423.11 324.07 423.24 310.99 C 423.70 300.11 420.67 288.83 413.50 280.47 C 406.68 271.87 396.68 266.81 387.11 261.91 C 378.72 257.56 369.56 255.05 361.07 250.92 C 355.47 248.16 349.08 245.83 345.50 240.38 C 342.40 235.75 344.90 228.88 349.93 226.80 C 357.89 223.69 366.64 224.26 374.99 224.95 C 386.64 226.24 398.39 228.63 408.87 234.09 C 410.61 235.04 414.26 235.33 414.42 232.63 C 414.64 221.42 414.43 210.20 414.52 198.99 C 414.46 197.06 414.59 194.53 412.64 193.44 C 403.03 189.07 392.39 187.77 381.97 186.86 C 370.62 186.00 359.13 185.84 347.88 187.78 Z" />
<path fill="#001834" opacity="1.00" d=" M 161.71 175.74 C 173.47 175.64 185.32 174.64 197.03 176.12 C 208.35 177.60 220.09 182.90 225.91 193.21 C 230.93 202.63 231.46 214.20 228.13 224.27 C 225.04 233.69 216.36 239.99 207.46 243.47 C 192.90 249.04 176.98 248.10 161.70 247.45 C 161.71 223.55 161.69 199.64 161.71 175.74 Z" />
</g>
<g id="#00a9ffff">
<path fill="#00a9ff" opacity="1.00" d=" M 117.02 134.71 C 135.33 134.25 153.65 133.74 171.96 133.39 C 186.05 133.18 200.29 133.21 214.14 136.17 C 231.35 139.70 248.10 147.86 259.63 161.39 C 272.42 176.27 277.61 196.60 276.26 215.93 C 275.48 231.03 270.93 246.32 261.21 258.13 C 250.71 271.40 235.35 280.30 218.97 284.12 C 200.21 288.91 180.69 288.42 161.51 287.79 C 161.45 310.53 161.54 333.28 161.47 356.02 C 161.85 358.06 159.98 359.57 158.04 359.25 C 144.70 359.26 131.34 359.31 118.00 359.23 C 116.09 359.56 114.96 357.77 115.22 356.09 C 115.17 283.38 115.22 210.67 115.20 137.97 C 115.25 136.78 115.14 134.43 117.02 134.71 M 161.71 175.74 C 161.69 199.64 161.71 223.55 161.70 247.45 C 176.98 248.10 192.90 249.04 207.46 243.47 C 216.36 239.99 225.04 233.69 228.13 224.27 C 231.46 214.20 230.93 202.63 225.91 193.21 C 220.09 182.90 208.35 177.60 197.03 176.12 C 185.32 174.64 173.47 175.64 161.71 175.74 Z" />
<path fill="#00a9ff" opacity="1.00" d=" M 347.88 187.78 C 359.13 185.84 370.62 186.00 381.97 186.86 C 392.39 187.77 403.03 189.07 412.64 193.44 C 414.59 194.53 414.46 197.06 414.52 198.99 C 414.43 210.20 414.64 221.42 414.42 232.63 C 414.26 235.33 410.61 235.04 408.87 234.09 C 398.39 228.63 386.64 226.24 374.99 224.95 C 366.64 224.26 357.89 223.69 349.93 226.80 C 344.90 228.88 342.40 235.75 345.50 240.38 C 349.08 245.83 355.47 248.16 361.07 250.92 C 369.56 255.05 378.72 257.56 387.11 261.91 C 396.68 266.81 406.68 271.87 413.50 280.47 C 420.67 288.83 423.70 300.11 423.24 310.99 C 423.11 324.07 417.61 337.07 407.98 345.99 C 395.98 357.46 379.11 362.05 362.95 363.32 C 347.16 364.49 331.19 363.06 315.83 359.27 C 311.10 357.91 306.40 356.37 301.97 354.22 C 300.31 353.52 299.14 351.87 299.33 350.05 C 299.26 338.35 299.36 326.64 299.29 314.94 C 299.26 313.49 299.55 312.06 299.88 310.66 C 304.18 311.77 307.70 314.67 311.84 316.19 C 326.66 322.39 342.89 325.62 358.98 324.70 C 363.59 324.31 368.38 323.66 372.47 321.34 C 376.75 318.81 378.69 312.56 375.68 308.36 C 371.54 302.35 364.24 300.00 357.89 297.12 C 346.68 292.69 335.30 288.43 325.15 281.79 C 313.73 275.02 304.10 264.19 301.02 251.04 C 297.39 235.70 301.36 218.60 311.89 206.78 C 321.07 196.34 334.33 190.13 347.88 187.78 Z" />
</g>
</svg>
