<?xml version="1.0" encoding="UTF-8" ?>
<!DOCTYPE svg PUBLIC "-//W3C//DTD SVG 1.1//EN" "http://www.w3.org/Graphics/SVG/1.1/DTD/svg11.dtd">
<svg width="512pt" height="512pt" viewBox="0 0 512 512" version="1.1" xmlns="http://www.w3.org/2000/svg">
<g id="#ff9c33ff">
<path fill="#ff9c33" opacity="1.00" d=" M 309.21 13.27 C 316.91 10.21 326.38 15.10 328.55 23.04 C 331.21 30.80 325.97 39.95 318.05 41.82 C 310.12 44.21 301.14 38.55 299.59 30.48 C 297.89 23.39 302.34 15.60 309.21 13.27 M 311.37 23.27 C 308.28 25.25 308.70 30.42 312.07 31.86 C 315.34 33.65 319.70 30.62 319.22 26.94 C 319.05 23.25 314.30 20.99 311.37 23.27 Z" />
<path fill="#ff9c33" opacity="1.00" d=" M 246.24 207.33 C 279.71 165.17 313.03 122.88 346.51 80.72 C 353.82 88.20 361.29 95.52 368.64 102.95 C 355.02 116.57 341.40 130.19 327.77 143.81 C 325.33 146.10 323.78 149.45 324.33 152.84 C 324.74 156.87 328.13 159.51 330.77 162.20 C 333.52 164.75 335.86 167.78 338.99 169.91 C 343.06 172.44 348.59 171.24 351.71 167.73 C 365.32 154.10 378.97 140.51 392.55 126.86 C 396.91 131.16 401.24 135.49 405.55 139.84 C 391.77 153.64 377.94 167.40 364.20 181.23 C 360.35 184.79 360.09 191.38 363.79 195.13 C 367.24 198.73 370.75 202.28 374.38 205.70 C 378.14 209.22 384.55 208.85 388.06 205.14 C 401.89 191.38 415.68 177.57 429.46 163.75 C 436.87 171.13 444.24 178.54 451.66 185.91 C 409.55 219.41 367.25 252.68 325.12 286.15 C 323.62 287.24 322.04 288.68 320.04 288.41 C 317.61 288.27 316.11 286.07 314.46 284.57 C 291.52 261.51 268.41 238.59 245.48 215.51 C 242.89 213.20 244.05 209.44 246.24 207.33 M 305.34 178.15 C 302.52 179.82 302.27 184.15 304.80 186.20 C 318.64 200.06 332.47 213.92 346.35 227.74 C 348.52 230.33 353.05 229.71 354.48 226.67 C 355.78 224.40 354.69 221.68 352.85 220.11 C 339.18 206.47 325.56 192.79 311.87 179.17 C 310.28 177.33 307.40 176.75 305.34 178.15 M 297.44 198.56 C 294.02 199.76 293.18 204.71 296.00 206.98 C 305.81 216.81 315.61 226.65 325.46 236.44 C 327.73 239.22 332.66 238.37 333.83 234.97 C 334.99 232.51 333.42 230.02 331.60 228.44 C 322.05 218.96 312.58 209.40 303.03 199.93 C 301.64 198.40 299.38 197.75 297.44 198.56 M 288.36 219.54 C 285.22 220.91 284.53 225.56 287.20 227.75 C 292.86 233.44 298.53 239.13 304.20 244.80 C 305.72 246.59 308.34 247.54 310.54 246.38 C 313.60 245.03 314.33 240.51 311.80 238.29 C 306.20 232.50 300.39 226.92 294.74 221.19 C 293.21 219.38 290.58 218.37 288.36 219.54 Z" />
<path fill="#ff9c33" opacity="1.00" d=" M 360.41 443.47 C 364.59 442.04 368.60 447.43 365.93 451.00 C 362.30 454.96 358.47 458.80 354.50 462.43 C 350.64 465.40 344.90 460.44 347.22 456.18 C 349.40 453.08 352.48 450.74 355.02 447.96 C 356.75 446.40 358.13 444.26 360.41 443.47 Z" />
</g>
<g id="#916e6e91">
</g>
<g id="#9c76769c">
</g>
<g id="#86666686">
</g>
<g id="#eaa6a6ea">
</g>
<g id="#f3ababf4">
</g>
<g id="#a67c7ca6">
</g>
<g id="#fcb0b0fc">
</g>
<g id="#7d61617d">
</g>
<g id="#e1a0a0e1">
</g>
<g id="#d89b9bd8">
</g>
<g id="#775c5c77">
</g>
<g id="#69515169">
</g>
<g id="#cd9494cd">
</g>
<g id="#0000cbff">
<path fill="#0000cb" opacity="1.00" d=" M 111.95 52.11 C 118.08 51.45 124.26 51.94 130.41 51.79 C 136.34 51.79 142.27 51.79 148.20 51.79 C 154.35 51.78 160.49 51.80 166.64 51.80 C 182.69 51.72 198.74 51.92 214.78 51.71 C 230.49 51.89 246.20 51.74 261.91 51.81 C 271.30 51.82 280.69 51.74 290.08 51.83 C 295.06 51.70 299.66 55.92 299.92 60.90 C 300.19 67.84 299.94 74.80 300.03 81.75 C 300.02 95.59 300.04 109.42 300.04 123.25 C 307.03 114.42 314.04 105.61 321.01 96.77 C 325.01 91.67 329.08 86.63 333.08 81.52 C 335.84 78.54 337.64 74.35 341.33 72.41 C 346.13 70.62 350.08 77.17 346.51 80.72 C 313.03 122.88 279.71 165.17 246.24 207.33 C 244.05 209.44 242.89 213.20 245.48 215.51 C 268.41 238.59 291.52 261.51 314.46 284.57 C 316.11 286.07 317.61 288.27 320.04 288.41 C 322.04 288.68 323.62 287.24 325.12 286.15 C 367.25 252.68 409.55 219.41 451.66 185.91 C 453.36 184.59 455.76 183.96 457.71 185.17 C 460.70 186.74 461.10 191.37 458.35 193.37 C 454.16 196.90 449.76 200.19 445.48 203.62 C 441.14 207.04 436.82 210.48 432.48 213.90 C 427.10 218.17 421.72 222.43 416.34 226.70 C 405.95 234.85 395.64 243.12 385.25 251.28 C 372.76 261.22 360.19 271.06 347.73 281.04 C 347.70 286.80 347.73 292.56 347.73 298.32 C 347.71 317.72 347.70 337.11 347.73 356.51 C 354.80 356.56 361.87 356.51 368.94 356.53 C 379.99 356.54 391.03 356.53 402.08 356.54 C 417.29 356.55 432.50 356.67 447.71 356.52 C 447.75 323.15 447.67 289.79 447.74 256.43 C 436.82 256.63 425.88 256.53 414.95 256.50 C 412.62 256.69 410.78 255.13 409.77 253.18 C 409.67 252.78 409.48 252.00 409.38 251.61 C 409.68 248.86 411.63 246.89 414.30 246.43 C 422.94 246.62 431.59 246.50 440.23 246.53 C 444.02 246.69 448.03 245.93 451.66 247.33 C 455.41 248.89 457.85 252.87 457.70 256.90 C 457.78 263.79 457.69 270.67 457.72 277.56 C 457.71 299.20 457.74 320.85 457.73 342.50 C 457.60 347.62 457.95 352.75 457.56 357.86 C 457.29 360.94 455.20 363.45 452.80 365.22 C 450.66 366.14 448.35 366.59 446.03 366.54 C 439.97 366.55 433.92 366.52 427.87 366.53 C 414.54 366.53 401.21 366.54 387.88 366.54 C 381.81 366.53 375.75 366.54 369.69 366.53 C 363.11 366.52 356.53 366.53 349.95 366.55 C 347.68 366.59 345.43 366.28 343.27 365.60 C 339.91 363.59 337.49 360.00 337.73 355.98 C 337.68 333.63 337.77 311.27 337.64 288.91 C 337.44 289.08 337.05 289.42 336.86 289.58 C 332.18 293.03 327.88 297.97 321.69 298.36 C 317.44 298.84 313.40 296.99 310.09 294.46 C 309.20 296.50 308.32 298.54 307.48 300.61 C 299.56 320.12 295.65 341.39 297.13 362.46 C 297.73 370.88 299.02 379.28 301.39 387.40 C 302.14 390.66 301.51 393.97 299.79 396.82 C 296.78 399.92 292.48 400.93 288.55 402.32 C 275.77 406.77 262.97 411.19 250.20 415.67 C 239.99 419.23 229.77 422.76 219.57 426.32 C 214.08 428.26 208.57 430.11 203.10 432.06 C 193.98 435.24 184.86 438.38 175.75 441.57 C 170.03 443.58 164.28 445.54 158.55 447.56 C 153.54 449.31 148.53 451.04 143.52 452.79 C 137.37 454.93 131.22 457.05 125.08 459.21 C 114.26 463.01 103.39 466.71 92.56 470.50 C 85.62 472.94 78.66 475.33 71.71 477.75 C 68.30 478.92 64.93 480.38 61.30 480.73 C 55.60 480.29 50.65 474.72 51.97 468.92 C 53.87 462.14 56.57 455.59 58.76 448.89 C 59.75 446.02 60.75 443.15 61.75 440.28 C 64.29 433.03 66.79 425.77 69.33 418.52 C 73.46 406.73 77.52 394.91 81.65 383.11 C 85.63 371.76 89.53 360.39 93.51 349.04 C 94.96 344.77 96.12 337.91 102.23 339.14 C 104.55 340.47 106.35 343.18 105.16 345.88 C 91.27 386.07 77.21 426.22 63.25 466.39 C 62.75 467.79 62.26 469.18 61.78 470.59 C 138.48 444.03 215.12 417.28 291.77 390.57 C 284.02 362.43 285.60 332.06 295.29 304.60 C 297.38 298.55 299.89 292.65 302.60 286.85 C 293.21 277.39 283.75 267.99 274.34 258.55 C 264.72 248.99 255.17 239.35 245.54 229.80 C 239.59 232.57 233.54 235.12 227.32 237.25 C 200.00 246.78 169.83 248.38 141.86 240.66 C 132.73 266.66 123.77 292.73 114.62 318.73 C 113.85 321.59 110.79 322.67 108.09 322.30 C 106.37 321.07 104.53 319.36 104.88 317.01 C 105.98 312.38 107.91 308.01 109.37 303.49 C 113.69 291.14 117.93 278.77 122.26 266.43 C 124.52 259.92 126.81 253.41 129.04 246.88 C 122.67 246.40 115.96 248.00 109.85 245.65 C 107.42 243.82 105.24 241.31 105.04 238.14 C 104.66 231.61 104.98 225.05 104.88 218.51 C 104.95 204.12 104.88 189.73 104.91 175.34 C 104.87 157.97 104.98 140.59 104.82 123.22 C 105.06 102.78 104.79 82.34 104.94 61.90 C 104.76 57.46 107.92 53.61 111.95 52.11 M 114.91 61.80 C 114.90 120.16 114.91 178.51 114.91 236.86 C 120.76 236.87 126.62 236.88 132.47 236.86 C 134.57 232.16 140.14 229.42 145.10 231.15 C 175.85 239.53 209.27 235.60 238.01 222.21 C 233.39 217.31 232.73 209.44 236.36 203.78 C 238.94 200.42 241.63 197.13 244.24 193.79 C 246.81 190.52 249.40 187.26 251.99 183.99 C 254.57 180.74 257.15 177.48 259.72 174.21 C 264.84 167.78 269.93 161.32 275.03 154.87 C 280.02 148.54 285.07 142.25 290.03 135.90 C 290.01 111.20 290.04 86.50 290.02 61.80 C 231.65 61.79 173.28 61.80 114.91 61.80 Z" />
</g>
<g id="#ffaa66ff">
<path fill="#ffaa66" opacity="1.00" d=" M 114.91 61.80 C 173.28 61.80 231.65 61.79 290.02 61.80 C 290.04 86.50 290.01 111.20 290.03 135.90 C 285.07 142.25 280.02 148.54 275.03 154.87 C 274.98 128.85 275.10 102.83 274.97 76.81 C 226.63 76.76 178.29 76.75 129.95 76.81 C 129.86 125.16 129.90 173.50 129.93 221.85 C 159.62 221.95 189.32 221.86 219.01 221.89 C 225.35 221.99 231.69 221.60 238.01 222.21 C 209.27 235.60 175.85 239.53 145.10 231.15 C 140.14 229.42 134.57 232.16 132.47 236.86 C 126.62 236.88 120.76 236.87 114.91 236.86 C 114.91 178.51 114.90 120.16 114.91 61.80 Z" />
<path fill="#ffaa66" opacity="1.00" d=" M 206.35 95.54 C 207.76 94.71 209.46 94.93 211.03 94.85 C 226.39 94.92 241.75 94.81 257.11 94.90 C 259.55 94.72 261.89 96.54 262.27 98.97 C 262.92 102.01 260.19 105.09 257.10 104.83 C 241.75 104.94 226.39 104.82 211.04 104.89 C 209.14 104.82 206.92 105.01 205.48 103.51 C 203.03 101.39 203.56 97.10 206.35 95.54 Z" />
<path fill="#ffaa66" opacity="1.00" d=" M 206.36 115.33 C 207.73 114.46 209.45 114.77 210.99 114.65 C 226.33 114.72 241.68 114.62 257.02 114.69 C 261.03 114.17 263.91 119.30 261.46 122.48 C 259.86 125.02 256.57 124.66 253.99 124.69 C 238.70 124.54 223.40 124.87 208.12 124.53 C 203.60 124.16 202.36 117.39 206.36 115.33 Z" />
<path fill="#ffaa66" opacity="1.00" d=" M 207.45 134.69 C 223.98 134.19 240.57 134.58 257.13 134.49 C 260.49 134.15 263.30 137.85 262.09 141.01 C 261.33 143.60 258.50 144.70 256.00 144.47 C 240.00 144.35 223.97 144.69 207.98 144.30 C 202.97 143.76 202.54 135.78 207.45 134.69 Z" />
<path fill="#ffaa66" opacity="1.00" d=" M 207.33 154.49 C 222.50 153.81 237.75 154.42 252.95 154.18 C 255.82 154.31 259.59 153.54 261.44 156.38 C 263.93 159.54 261.04 164.66 257.05 164.18 C 241.37 164.24 225.69 164.18 210.01 164.21 C 208.12 164.30 206.03 163.87 204.90 162.21 C 202.80 159.68 204.16 155.35 207.33 154.49 Z" />
<path fill="#ffaa66" opacity="1.00" d=" M 142.68 180.04 C 141.78 176.35 145.50 173.41 148.96 174.00 C 185.88 174.14 222.81 173.72 259.72 174.21 C 257.15 177.48 254.57 180.74 251.99 183.99 C 217.64 184.01 183.28 183.99 148.93 184.01 C 146.23 184.31 143.18 182.95 142.68 180.04 Z" />
<path fill="#ffaa66" opacity="1.00" d=" M 143.03 200.89 C 141.36 197.59 144.29 193.41 147.97 193.84 C 180.05 193.72 212.15 193.84 244.24 193.79 C 241.63 197.13 238.94 200.42 236.36 203.78 C 207.23 203.82 178.09 203.77 148.96 203.81 C 146.65 203.95 143.98 203.25 143.03 200.89 Z" />
</g>
<g id="#bc8b8bbc">
</g>
<g id="#604c4c60">
</g>
<g id="#ffd5baff">
<path fill="#ffd5ba" opacity="1.00" d=" M 129.95 76.81 C 178.29 76.75 226.63 76.76 274.97 76.81 C 275.10 102.83 274.98 128.85 275.03 154.87 C 269.93 161.32 264.84 167.78 259.72 174.21 C 222.81 173.72 185.88 174.14 148.96 174.00 C 145.50 173.41 141.78 176.35 142.68 180.04 C 143.18 182.95 146.23 184.31 148.93 184.01 C 183.28 183.99 217.64 184.01 251.99 183.99 C 249.40 187.26 246.81 190.52 244.24 193.79 C 212.15 193.84 180.05 193.72 147.97 193.84 C 144.29 193.41 141.36 197.59 143.03 200.89 C 143.98 203.25 146.65 203.95 148.96 203.81 C 178.09 203.77 207.23 203.82 236.36 203.78 C 232.73 209.44 233.39 217.31 238.01 222.21 C 231.69 221.60 225.35 221.99 219.01 221.89 C 189.32 221.86 159.62 221.95 129.93 221.85 C 129.90 173.50 129.86 125.16 129.95 76.81 M 142.70 99.06 C 142.43 101.68 142.42 104.35 142.78 106.96 C 143.48 109.94 147.25 111.51 149.89 109.99 C 151.91 109.11 152.19 106.69 153.00 104.90 C 156.29 104.84 159.58 104.84 162.87 104.86 C 162.91 118.97 163.00 133.07 162.83 147.18 C 161.31 148.06 159.29 148.57 158.56 150.34 C 157.01 153.17 159.07 157.19 162.33 157.39 C 166.07 157.80 169.88 157.82 173.62 157.36 C 176.73 157.09 178.67 153.35 177.38 150.57 C 176.63 148.63 174.44 148.03 172.85 146.98 C 173.01 132.96 172.83 118.93 172.94 104.91 C 176.22 104.81 179.49 104.81 182.77 104.96 C 183.59 106.77 183.96 109.19 186.02 110.05 C 188.65 111.41 192.37 109.95 193.02 106.96 C 193.42 104.30 193.39 101.57 193.10 98.90 C 192.80 96.51 190.43 94.76 188.07 94.91 C 174.70 94.82 161.32 94.84 147.95 94.90 C 145.48 94.70 142.91 96.50 142.70 99.06 M 206.35 95.54 C 203.56 97.10 203.03 101.39 205.48 103.51 C 206.92 105.01 209.14 104.82 211.04 104.89 C 226.39 104.82 241.75 104.94 257.10 104.83 C 260.19 105.09 262.92 102.01 262.27 98.97 C 261.89 96.54 259.55 94.72 257.11 94.90 C 241.75 94.81 226.39 94.92 211.03 94.85 C 209.46 94.93 207.76 94.71 206.35 95.54 M 206.36 115.33 C 202.36 117.39 203.60 124.16 208.12 124.53 C 223.40 124.87 238.70 124.54 253.99 124.69 C 256.57 124.66 259.86 125.02 261.46 122.48 C 263.91 119.30 261.03 114.17 257.02 114.69 C 241.68 114.62 226.33 114.72 210.99 114.65 C 209.45 114.77 207.73 114.46 206.36 115.33 M 207.45 134.69 C 202.54 135.78 202.97 143.76 207.98 144.30 C 223.97 144.69 240.00 144.35 256.00 144.47 C 258.50 144.70 261.33 143.60 262.09 141.01 C 263.30 137.85 260.49 134.15 257.13 134.49 C 240.57 134.58 223.98 134.19 207.45 134.69 M 207.33 154.49 C 204.16 155.35 202.80 159.68 204.90 162.21 C 206.03 163.87 208.12 164.30 210.01 164.21 C 225.69 164.18 241.37 164.24 257.05 164.18 C 261.04 164.66 263.93 159.54 261.44 156.38 C 259.59 153.54 255.82 154.31 252.95 154.18 C 237.75 154.42 222.50 153.81 207.33 154.49 Z" />
<path fill="#ffd5ba" opacity="1.00" d=" M 305.34 178.15 C 307.40 176.75 310.28 177.33 311.87 179.17 C 325.56 192.79 339.18 206.47 352.85 220.11 C 354.69 221.68 355.78 224.40 354.48 226.67 C 353.05 229.71 348.52 230.33 346.35 227.74 C 332.47 213.92 318.64 200.06 304.80 186.20 C 302.27 184.15 302.52 179.82 305.34 178.15 Z" />
<path fill="#ffd5ba" opacity="1.00" d=" M 297.44 198.56 C 299.38 197.75 301.64 198.40 303.03 199.93 C 312.58 209.40 322.05 218.96 331.60 228.44 C 333.42 230.02 334.99 232.51 333.83 234.97 C 332.66 238.37 327.73 239.22 325.46 236.44 C 315.61 226.65 305.81 216.81 296.00 206.98 C 293.18 204.71 294.02 199.76 297.44 198.56 Z" />
<path fill="#ffd5ba" opacity="1.00" d=" M 288.36 219.54 C 290.58 218.37 293.21 219.38 294.74 221.19 C 300.39 226.92 306.20 232.50 311.80 238.29 C 314.33 240.51 313.60 245.03 310.54 246.38 C 308.34 247.54 305.72 246.59 304.20 244.80 C 298.53 239.13 292.86 233.44 287.20 227.75 C 284.53 225.56 285.22 220.91 288.36 219.54 Z" />
</g>
<g id="#b38484b4">
</g>
<g id="#ff6c6cff">
<path fill="#ff6c6c" opacity="1.00" d=" M 56.65 97.58 C 60.73 90.86 70.19 88.60 76.94 92.62 C 82.16 95.89 84.97 102.13 84.20 108.21 C 82.88 113.57 79.06 118.20 73.74 119.95 C 68.99 121.33 63.62 120.34 59.81 117.15 C 54.04 112.62 52.53 103.69 56.65 97.58 M 67.17 101.06 C 63.74 102.46 63.28 107.73 66.44 109.69 C 69.32 111.93 74.14 109.72 74.18 106.04 C 74.81 102.36 70.42 99.31 67.17 101.06 Z" />
<path fill="#ff6c6c" opacity="1.00" d=" M 462.21 143.40 C 464.79 141.98 468.43 142.38 469.73 145.31 C 471.17 147.82 469.49 150.43 467.72 152.21 C 463.52 155.84 460.34 160.89 455.02 163.00 C 453.74 162.25 452.41 161.58 451.29 160.61 C 449.83 159.06 450.49 156.87 450.58 154.98 C 454.58 151.25 458.36 147.29 462.21 143.40 Z" />
</g>
<g id="#ffffffff">
<path fill="#ffffff" opacity="1.00" d=" M 142.70 99.06 C 142.91 96.50 145.48 94.70 147.95 94.90 C 161.32 94.84 174.70 94.82 188.07 94.91 C 190.43 94.76 192.80 96.51 193.10 98.90 C 193.39 101.57 193.42 104.30 193.02 106.96 C 192.37 109.95 188.65 111.41 186.02 110.05 C 183.96 109.19 183.59 106.77 182.77 104.96 C 179.49 104.81 176.22 104.81 172.94 104.91 C 172.83 118.93 173.01 132.96 172.85 146.98 C 174.44 148.03 176.63 148.63 177.38 150.57 C 178.67 153.35 176.73 157.09 173.62 157.36 C 169.88 157.82 166.07 157.80 162.33 157.39 C 159.07 157.19 157.01 153.17 158.56 150.34 C 159.29 148.57 161.31 148.06 162.83 147.18 C 163.00 133.07 162.91 118.97 162.87 104.86 C 159.58 104.84 156.29 104.84 153.00 104.90 C 152.19 106.69 151.91 109.11 149.89 109.99 C 147.25 111.51 143.48 109.94 142.78 106.96 C 142.42 104.35 142.43 101.68 142.70 99.06 Z" />
</g>
<g id="#8282ffff">
<path fill="#8282ff" opacity="1.00" d=" M 368.64 102.95 C 376.64 110.89 384.61 118.86 392.55 126.86 C 378.97 140.51 365.32 154.10 351.71 167.73 C 348.59 171.24 343.06 172.44 338.99 169.91 C 335.86 167.78 333.52 164.75 330.77 162.20 C 328.13 159.51 324.74 156.87 324.33 152.84 C 323.78 149.45 325.33 146.10 327.77 143.81 C 341.40 130.19 355.02 116.57 368.64 102.95 Z" />
<path fill="#8282ff" opacity="1.00" d=" M 405.55 139.84 C 407.86 142.15 410.18 144.45 412.50 146.75 C 418.14 152.43 423.83 158.06 429.46 163.75 C 415.68 177.57 401.89 191.38 388.06 205.14 C 384.55 208.85 378.14 209.22 374.38 205.70 C 370.75 202.28 367.24 198.73 363.79 195.13 C 360.09 191.38 360.35 184.79 364.20 181.23 C 377.94 167.40 391.77 153.64 405.55 139.84 Z" />
<path fill="#8282ff" opacity="1.00" d=" M 392.31 263.33 C 397.48 259.45 402.16 254.88 407.75 251.58 C 408.26 251.98 409.27 252.78 409.77 253.18 C 410.78 255.13 412.62 256.69 414.95 256.50 C 425.88 256.53 436.82 256.63 447.74 256.43 C 447.67 289.79 447.75 323.15 447.71 356.52 C 432.50 356.67 417.29 356.55 402.08 356.54 C 405.00 354.37 407.49 351.71 409.75 348.88 C 410.45 351.31 411.28 353.70 412.17 356.07 C 417.42 356.68 422.70 356.32 427.98 356.35 C 433.99 356.33 440.04 356.82 446.02 355.86 C 445.71 353.98 445.07 352.19 444.26 350.49 C 441.63 351.19 438.92 352.89 436.15 351.98 C 434.36 350.15 434.63 347.37 434.44 345.03 C 434.33 329.70 434.58 314.36 434.32 299.03 C 434.21 291.66 432.66 283.32 426.16 278.84 C 417.49 272.86 406.25 272.57 396.11 273.40 C 386.86 274.66 376.49 276.64 370.23 284.24 C 364.93 290.36 367.48 300.98 374.89 304.14 C 382.38 307.62 392.44 302.47 393.23 294.06 C 394.20 289.08 390.78 285.00 387.46 281.82 C 393.58 279.96 401.26 278.91 406.44 283.56 C 410.54 287.22 409.65 293.14 409.76 298.05 C 409.68 302.26 410.44 307.67 406.22 310.23 C 394.51 317.66 379.06 317.84 368.77 327.74 C 360.66 335.16 361.10 349.07 368.94 356.53 C 361.87 356.51 354.80 356.56 347.73 356.51 C 347.70 337.11 347.71 317.72 347.73 298.32 C 362.83 286.98 377.39 274.93 392.31 263.33 Z" />
<path fill="#8282ff" opacity="1.00" d=" M 211.17 289.02 C 220.04 286.56 229.96 289.28 236.50 295.73 C 242.49 301.75 245.42 310.64 243.87 319.03 C 242.13 329.76 233.09 338.74 222.36 340.43 C 215.66 341.77 208.95 339.68 203.09 336.52 C 171.18 368.11 139.60 400.06 107.73 431.70 C 105.73 434.28 102.54 433.40 99.98 432.38 C 99.48 430.46 98.19 428.30 99.39 426.38 C 101.13 423.84 103.56 421.88 105.68 419.68 C 135.78 389.55 165.94 359.49 196.00 329.31 C 192.97 324.12 191.03 318.14 191.72 312.08 C 192.52 301.31 200.71 291.65 211.17 289.02 M 213.29 303.51 C 209.13 305.19 206.21 309.47 206.07 313.94 C 205.54 320.87 212.12 327.16 219.02 326.27 C 225.80 325.88 231.02 318.95 229.64 312.32 C 228.54 305.03 219.99 300.49 213.29 303.51 Z" />
<path fill="#8282ff" opacity="1.00" d=" M 391.22 330.21 C 397.07 325.35 404.68 322.89 409.78 317.04 C 409.64 323.39 409.76 329.74 409.71 336.10 C 409.93 339.19 407.07 341.24 405.09 343.17 C 400.66 346.98 392.95 347.87 388.94 343.03 C 386.03 339.03 387.44 333.15 391.22 330.21 Z" />
<path fill="#8282ff" opacity="1.00" d=" M 290.51 433.77 C 297.92 431.67 306.33 436.47 308.45 443.85 C 311.11 451.43 306.21 460.46 298.52 462.59 C 290.82 465.23 281.74 460.11 279.75 452.28 C 277.30 444.51 282.63 435.60 290.51 433.77 M 292.46 443.60 C 288.95 444.69 288.02 449.83 290.94 452.08 C 293.68 454.67 298.69 452.78 299.11 449.06 C 299.83 445.47 295.83 442.19 292.46 443.60 Z" />
</g>
<g id="#57454557">
</g>
<g id="#b9869ad2">
</g>
<g id="#b28195cb">
</g>
<g id="#cc9494cc">
</g>
<g id="#3f32323f">
</g>
<g id="#a87c8fc1">
</g>
<g id="#b2b2ffff">
<path fill="#b2b2ff" opacity="1.00" d=" M 227.32 237.25 C 233.54 235.12 239.59 232.57 245.54 229.80 C 255.17 239.35 264.72 248.99 274.34 258.55 C 270.23 262.80 265.82 266.75 261.88 271.16 C 263.73 273.30 265.66 275.37 267.71 277.33 C 276.98 286.33 285.86 295.75 295.29 304.60 C 285.60 332.06 284.02 362.43 291.77 390.57 C 215.12 417.28 138.48 444.03 61.78 470.59 C 62.26 469.18 62.75 467.79 63.25 466.39 L 63.86 467.63 C 76.21 456.21 87.99 444.17 99.98 432.38 C 102.54 433.40 105.73 434.28 107.73 431.70 C 139.60 400.06 171.18 368.11 203.09 336.52 C 208.95 339.68 215.66 341.77 222.36 340.43 C 233.09 338.74 242.13 329.76 243.87 319.03 C 245.42 310.64 242.49 301.75 236.50 295.73 C 240.30 292.13 244.02 288.44 247.76 284.78 C 250.11 286.00 253.32 286.60 255.22 284.25 C 257.32 282.23 256.44 279.26 255.29 277.02 C 257.40 275.13 259.35 273.09 261.25 271.00 C 255.95 265.23 250.18 259.91 244.72 254.29 C 238.89 248.64 233.43 242.61 227.32 237.25 M 262.30 297.41 C 259.06 298.25 257.61 302.62 259.79 305.20 C 262.03 308.42 267.62 307.44 268.64 303.66 C 270.00 299.97 265.97 295.99 262.30 297.41 M 261.32 322.37 C 258.33 323.88 257.85 328.46 260.50 330.53 C 263.16 333.00 268.03 331.48 268.73 327.89 C 269.92 323.83 264.86 320.13 261.32 322.37 M 249.35 343.48 C 246.13 344.83 245.47 349.63 248.22 351.80 C 250.88 354.44 255.96 352.74 256.48 349.02 C 257.38 345.19 252.86 341.61 249.35 343.48 M 204.36 355.45 C 200.75 356.27 199.35 361.38 202.07 363.91 C 204.47 366.57 209.36 365.39 210.35 361.96 C 211.90 358.38 208.04 354.25 204.36 355.45 M 228.45 355.60 C 225.21 356.66 224.19 361.13 226.45 363.61 C 228.73 366.58 233.98 365.58 234.99 361.97 C 236.46 358.17 232.21 353.95 228.45 355.60 Z" />
<path fill="#b2b2ff" opacity="1.00" d=" M 370.23 284.24 C 376.49 276.64 386.86 274.66 396.11 273.40 C 406.25 272.57 417.49 272.86 426.16 278.84 C 432.66 283.32 434.21 291.66 434.32 299.03 C 434.58 314.36 434.33 329.70 434.44 345.03 C 434.63 347.37 434.36 350.15 436.15 351.98 C 438.92 352.89 441.63 351.19 444.26 350.49 C 445.07 352.19 445.71 353.98 446.02 355.86 C 440.04 356.82 433.99 356.33 427.98 356.35 C 422.70 356.32 417.42 356.68 412.17 356.07 C 411.28 353.70 410.45 351.31 409.75 348.88 C 407.49 351.71 405.00 354.37 402.08 356.54 C 391.03 356.53 379.99 356.54 368.94 356.53 C 361.10 349.07 360.66 335.16 368.77 327.74 C 379.06 317.84 394.51 317.66 406.22 310.23 C 410.44 307.67 409.68 302.26 409.76 298.05 C 409.65 293.14 410.54 287.22 406.44 283.56 C 401.26 278.91 393.58 279.96 387.46 281.82 C 390.78 285.00 394.20 289.08 393.23 294.06 C 392.44 302.47 382.38 307.62 374.89 304.14 C 367.48 300.98 364.93 290.36 370.23 284.24 M 391.22 330.21 C 387.44 333.15 386.03 339.03 388.94 343.03 C 392.95 347.87 400.66 346.98 405.09 343.17 C 407.07 341.24 409.93 339.19 409.71 336.10 C 409.76 329.74 409.64 323.39 409.78 317.04 C 404.68 322.89 397.07 325.35 391.22 330.21 Z" />
</g>
<g id="#c38e8ec3">
</g>
<g id="#d8d8ffff">
<path fill="#d8d8ff" opacity="1.00" d=" M 141.86 240.66 C 169.83 248.38 200.00 246.78 227.32 237.25 C 233.43 242.61 238.89 248.64 244.72 254.29 C 250.18 259.91 255.95 265.23 261.25 271.00 C 259.35 273.09 257.40 275.13 255.29 277.02 C 252.89 275.73 249.58 275.19 247.71 277.65 C 245.70 279.69 246.65 282.57 247.76 284.78 C 244.02 288.44 240.30 292.13 236.50 295.73 C 229.96 289.28 220.04 286.56 211.17 289.02 C 200.71 291.65 192.52 301.31 191.72 312.08 C 191.03 318.14 192.97 324.12 196.00 329.31 C 165.94 359.49 135.78 389.55 105.68 419.68 C 103.56 421.88 101.13 423.84 99.39 426.38 C 98.19 428.30 99.48 430.46 99.98 432.38 C 87.99 444.17 76.21 456.21 63.86 467.63 L 63.25 466.39 C 77.21 426.22 91.27 386.07 105.16 345.88 C 106.35 343.18 104.55 340.47 102.23 339.14 C 103.05 336.81 103.86 334.49 104.68 332.17 C 105.83 328.88 106.98 325.59 108.09 322.30 C 110.79 322.67 113.85 321.59 114.62 318.73 C 123.77 292.73 132.73 266.66 141.86 240.66 M 203.22 264.16 C 199.79 265.81 199.87 271.21 203.17 272.95 C 206.15 274.90 210.52 272.57 210.65 269.04 C 211.14 265.21 206.54 262.08 203.22 264.16 M 227.39 264.42 C 224.26 266.43 224.62 271.71 228.08 273.19 C 231.49 274.94 235.80 271.68 235.21 267.94 C 234.95 264.34 230.27 262.19 227.39 264.42 M 182.18 276.32 C 178.85 277.71 178.33 282.73 181.27 284.81 C 183.95 287.19 188.64 285.53 189.29 282.02 C 190.33 278.15 185.76 274.41 182.18 276.32 M 170.38 297.43 C 167.01 298.42 165.85 303.18 168.39 305.61 C 170.75 308.29 175.65 307.31 176.79 303.92 C 178.49 300.13 174.15 295.94 170.38 297.43 M 169.42 322.49 C 166.35 324.16 166.22 329.01 169.19 330.86 C 172.18 333.12 177.00 330.84 177.13 327.08 C 177.56 323.15 172.68 320.25 169.42 322.49 Z" />
</g>
<g id="#3f334759">
</g>
<g id="#342b2b35">
</g>
<g id="#6c6cffff">
<path fill="#6c6cff" opacity="1.00" d=" M 347.73 281.04 C 360.19 271.06 372.76 261.22 385.25 251.28 C 393.29 251.38 401.36 250.88 409.38 251.61 C 409.48 252.00 409.67 252.78 409.77 253.18 C 409.27 252.78 408.26 251.98 407.75 251.58 C 402.16 254.88 397.48 259.45 392.31 263.33 C 377.39 274.93 362.83 286.98 347.73 298.32 C 347.73 292.56 347.70 286.80 347.73 281.04 Z" />
<path fill="#6c6cff" opacity="1.00" d=" M 213.29 303.51 C 219.99 300.49 228.54 305.03 229.64 312.32 C 231.02 318.95 225.80 325.88 219.02 326.27 C 212.12 327.16 205.54 320.87 206.07 313.94 C 206.21 309.47 209.13 305.19 213.29 303.51 Z" />
</g>
<g id="#9393ffff">
<path fill="#9393ff" opacity="1.00" d=" M 261.88 271.16 C 265.82 266.75 270.23 262.80 274.34 258.55 C 283.75 267.99 293.21 277.39 302.60 286.85 C 299.89 292.65 297.38 298.55 295.29 304.60 C 285.86 295.75 276.98 286.33 267.71 277.33 C 265.66 275.37 263.73 273.30 261.88 271.16 Z" />
</g>
<g id="#2e25252e">
</g>
<g id="#ff9393ff">
<path fill="#ff9393" opacity="1.00" d=" M 203.22 264.16 C 206.54 262.08 211.14 265.21 210.65 269.04 C 210.52 272.57 206.15 274.90 203.17 272.95 C 199.87 271.21 199.79 265.81 203.22 264.16 Z" />
<path fill="#ff9393" opacity="1.00" d=" M 227.39 264.42 C 230.27 262.19 234.95 264.34 235.21 267.94 C 235.80 271.68 231.49 274.94 228.08 273.19 C 224.62 271.71 224.26 266.43 227.39 264.42 Z" />
<path fill="#ff9393" opacity="1.00" d=" M 182.18 276.32 C 185.76 274.41 190.33 278.15 189.29 282.02 C 188.64 285.53 183.95 287.19 181.27 284.81 C 178.33 282.73 178.85 277.71 182.18 276.32 Z" />
<path fill="#ff9393" opacity="1.00" d=" M 170.38 297.43 C 174.15 295.94 178.49 300.13 176.79 303.92 C 175.65 307.31 170.75 308.29 168.39 305.61 C 165.85 303.18 167.01 298.42 170.38 297.43 Z" />
<path fill="#ff9393" opacity="1.00" d=" M 169.42 322.49 C 172.68 320.25 177.56 323.15 177.13 327.08 C 177.00 330.84 172.18 333.12 169.19 330.86 C 166.22 329.01 166.35 324.16 169.42 322.49 Z" />
</g>
<g id="#231c1c23">
</g>
<g id="#ff4d4dff">
<path fill="#ff4d4d" opacity="1.00" d=" M 247.71 277.65 C 249.58 275.19 252.89 275.73 255.29 277.02 C 256.44 279.26 257.32 282.23 255.22 284.25 C 253.32 286.60 250.11 286.00 247.76 284.78 C 246.65 282.57 245.70 279.69 247.71 277.65 Z" />
<path fill="#ff4d4d" opacity="1.00" d=" M 262.30 297.41 C 265.97 295.99 270.00 299.97 268.64 303.66 C 267.62 307.44 262.03 308.42 259.79 305.20 C 257.61 302.62 259.06 298.25 262.30 297.41 Z" />
<path fill="#ff4d4d" opacity="1.00" d=" M 261.32 322.37 C 264.86 320.13 269.92 323.83 268.73 327.89 C 268.03 331.48 263.16 333.00 260.50 330.53 C 257.85 328.46 258.33 323.88 261.32 322.37 Z" />
<path fill="#ff4d4d" opacity="1.00" d=" M 249.35 343.48 C 252.86 341.61 257.38 345.19 256.48 349.02 C 255.96 352.74 250.88 354.44 248.22 351.80 C 245.47 349.63 246.13 344.83 249.35 343.48 Z" />
<path fill="#ff4d4d" opacity="1.00" d=" M 204.36 355.45 C 208.04 354.25 211.90 358.38 210.35 361.96 C 209.36 365.39 204.47 366.57 202.07 363.91 C 199.35 361.38 200.75 356.27 204.36 355.45 Z" />
<path fill="#ff4d4d" opacity="1.00" d=" M 228.45 355.60 C 232.21 353.95 236.46 358.17 234.99 361.97 C 233.98 365.58 228.73 366.58 226.45 363.61 C 224.19 361.13 225.21 356.66 228.45 355.60 Z" />
</g>
<g id="#bf8c8cbf">
</g>
<g id="#7d617496">
</g>
<g id="#17131317">
</g>
<g id="#71576b8b">
</g>
<g id="#0d0a0a0d">
</g>
<g id="#7c5f5f7c">
</g>
<g id="#b28383b2">
</g>
<g id="#00001419">
<path fill="#000014" opacity="0.10" d=" M 297.13 362.46 C 299.81 365.57 302.36 368.80 304.58 372.26 C 304.70 372.46 304.95 372.85 305.08 373.04 C 303.90 377.84 302.54 382.60 301.39 387.40 C 299.02 379.28 297.73 370.88 297.13 362.46 Z" />
</g>
<g id="#987386b2">
</g>
<g id="#7b5f7395">
</g>
<g id="#8564789e">
</g>
<g id="#8e6a7fa8">
</g>
<g id="#a17979a1">
</g>
<g id="#926f6f92">
</g>
<g id="#46384c5f">
</g>
<g id="#3e324657">
</g>
<g id="#342b3f4e">
</g>
<g id="#46393946">
</g>
<g id="#2c233845">
</g>
<g id="#241e323e">
</g>
<g id="#372d2d37">
</g>
<g id="#1d192d37">
</g>
<g id="#1410252e">
</g>
<g id="#1a16161a">
</g>
</svg>
