<?xml version="1.0" encoding="UTF-8" ?>
<!DOCTYPE svg PUBLIC "-//W3C//DTD SVG 1.1//EN" "http://www.w3.org/Graphics/SVG/1.1/DTD/svg11.dtd">
<svg width="512pt" height="512pt" viewBox="0 0 512 512" version="1.1" xmlns="http://www.w3.org/2000/svg">
<g id="#2b2e63ff">
<path fill="#2b2e63" opacity="1.00" d=" M 254.54 0.00 L 257.25 0.00 C 261.38 0.81 264.23 4.80 263.77 8.96 C 263.73 24.64 263.81 40.33 263.73 56.01 C 263.85 59.52 261.33 62.89 257.88 63.67 C 253.16 65.04 248.02 60.94 248.27 56.04 C 248.21 40.02 248.23 23.99 248.26 7.97 C 248.05 4.15 250.97 0.94 254.54 0.00 Z" />
<path fill="#2b2e63" opacity="1.00" d=" M 142.20 30.23 C 145.80 28.77 150.16 30.58 151.90 34.00 C 159.84 47.75 167.80 61.50 175.68 75.28 C 178.10 79.05 176.43 84.53 172.38 86.38 C 168.72 88.17 164.00 86.46 162.17 82.86 C 154.25 69.13 146.35 55.37 138.45 41.63 C 135.83 37.71 137.76 31.80 142.20 30.23 Z" />
<path fill="#2b2e63" opacity="1.00" d=" M 364.25 30.35 C 370.40 27.60 377.35 35.08 373.96 40.96 C 366.43 54.38 358.58 67.62 350.98 81.01 C 349.64 83.48 347.94 86.17 345.01 86.87 C 340.85 88.22 336.08 85.25 335.31 80.99 C 334.76 78.78 335.59 76.57 336.72 74.69 C 344.56 61.17 352.32 47.59 360.15 34.06 C 361.08 32.43 362.44 30.98 364.25 30.35 Z" />
<path fill="#2b2e63" opacity="1.00" d=" M 202.60 120.60 C 226.34 109.76 253.40 106.44 279.08 111.13 C 310.14 116.58 338.71 134.11 358.22 158.80 C 377.34 182.73 387.71 213.39 387.16 244.00 C 386.61 269.85 379.84 295.68 367.15 318.25 C 360.92 329.59 351.86 338.94 344.38 349.42 C 337.32 359.11 330.92 369.41 326.65 380.66 C 322.56 391.32 320.59 402.73 320.36 414.13 C 322.21 415.92 323.99 418.13 323.80 420.89 C 323.89 435.28 323.83 449.67 323.82 464.06 C 323.93 473.33 317.39 481.88 308.63 484.68 C 306.92 490.57 303.77 496.04 299.24 500.21 C 291.77 507.39 281.56 511.01 271.37 512.00 L 240.21 512.00 C 233.77 511.14 227.31 509.67 221.59 506.49 C 212.98 501.98 206.01 494.15 203.45 484.68 C 195.02 481.92 188.43 473.94 188.23 464.94 C 188.09 450.27 188.15 435.60 188.20 420.93 C 188.01 418.16 189.77 415.93 191.64 414.13 C 191.37 401.69 189.05 389.24 184.20 377.76 C 177.66 362.10 167.34 348.44 156.73 335.35 C 140.57 315.95 131.21 291.63 126.95 266.94 C 122.67 242.22 124.78 216.28 134.10 192.91 C 146.47 161.19 171.51 134.58 202.60 120.60 M 220.94 129.93 C 192.23 139.06 167.71 160.11 153.77 186.75 C 143.53 206.06 138.96 228.27 140.37 250.06 C 142.45 277.31 151.20 304.84 169.03 325.96 C 179.76 339.27 190.24 353.06 197.21 368.78 C 203.48 382.63 206.70 397.79 207.08 412.96 C 239.69 413.01 272.31 413.01 304.92 412.96 C 305.32 392.82 311.22 372.87 321.65 355.64 C 329.02 343.07 338.40 331.86 347.40 320.44 C 360.07 303.27 367.22 282.51 370.37 261.54 C 373.04 244.31 372.15 226.51 367.38 209.71 C 359.93 182.93 342.61 159.05 319.47 143.66 C 290.99 124.37 253.60 119.13 220.94 129.93 M 203.76 428.58 C 203.75 432.89 203.76 437.21 203.75 441.52 C 238.56 441.54 273.37 441.53 308.18 441.53 C 308.17 437.21 308.18 432.89 308.17 428.58 C 273.37 428.57 238.57 428.57 203.76 428.58 M 203.75 457.19 C 203.80 459.82 203.61 462.46 203.87 465.08 C 204.32 468.42 207.80 470.59 211.04 470.20 C 241.03 470.20 271.02 470.20 301.01 470.20 C 304.22 470.57 307.61 468.37 308.06 465.08 C 308.33 462.46 308.12 459.82 308.18 457.19 C 273.37 457.16 238.56 457.16 203.75 457.19 M 220.95 485.75 C 226.43 493.73 236.76 496.78 246.05 496.41 C 254.01 496.34 261.98 496.50 269.94 496.32 C 277.91 495.82 286.46 492.64 291.04 485.75 C 267.68 485.71 244.32 485.70 220.95 485.75 Z" />
<path fill="#2b2e63" opacity="1.00" d=" M 61.30 111.46 C 63.97 110.51 66.71 111.61 68.98 113.02 C 82.47 120.90 96.12 128.54 109.57 136.49 C 114.10 139.08 114.38 146.23 110.12 149.22 C 107.41 151.31 103.48 151.19 100.72 149.26 C 86.84 141.17 72.84 133.28 59.01 125.11 C 53.87 121.76 55.43 113.00 61.30 111.46 Z" />
<path fill="#2b2e63" opacity="1.00" d=" M 446.38 111.45 C 450.39 110.24 455.04 112.91 455.96 117.00 C 456.86 120.45 455.02 124.20 451.91 125.84 C 438.17 133.78 424.42 141.71 410.65 149.61 C 407.14 151.88 401.94 150.68 399.94 146.97 C 397.62 143.36 399.19 138.11 402.98 136.19 C 417.49 128.02 431.69 119.24 446.38 111.45 Z" />
<path fill="#2b2e63" opacity="1.00" d=" M 303.23 220.19 C 307.54 215.72 315.92 219.02 316.38 225.10 C 317.08 229.05 314.05 231.99 311.45 234.43 C 286.93 258.89 262.49 283.44 237.95 307.88 C 235.63 310.49 231.68 310.99 228.57 309.63 C 228.52 309.60 228.43 309.56 228.39 309.54 C 227.20 308.78 226.18 307.81 225.19 306.82 C 216.06 297.60 206.81 288.49 197.69 279.26 C 194.53 276.14 194.93 270.31 198.50 267.68 C 200.59 265.62 203.83 265.61 206.48 266.38 C 206.53 266.40 206.63 266.45 206.68 266.47 C 210.26 268.73 212.85 272.17 215.93 275.01 C 221.47 280.35 226.62 286.11 232.41 291.18 C 255.85 267.36 279.60 243.83 303.23 220.19 Z" />
<path fill="#2b2e63" opacity="1.00" d=" M 32.21 222.35 C 48.83 221.87 65.50 222.22 82.13 222.18 C 86.32 222.05 90.08 225.80 89.90 230.00 C 89.98 234.14 86.23 237.84 82.08 237.65 C 66.04 237.68 50.01 237.68 33.97 237.65 C 29.82 237.84 26.03 234.19 26.09 230.03 C 25.96 226.44 28.66 223.00 32.21 222.35 Z" />
<path fill="#2b2e63" opacity="1.00" d=" M 427.40 222.54 C 428.88 222.10 430.45 222.15 431.99 222.12 C 447.33 222.18 462.68 222.07 478.03 222.17 C 482.24 222.01 486.04 225.77 485.90 229.98 C 485.99 234.16 482.18 237.85 478.01 237.65 C 461.99 237.68 445.97 237.68 429.96 237.65 C 426.50 237.79 423.16 235.36 422.29 232.00 C 421.12 228.14 423.51 223.65 427.40 222.54 Z" />
<path fill="#2b2e63" opacity="1.00" d=" M 103.33 309.43 C 107.38 308.12 112.15 310.85 113.02 315.02 C 113.88 318.48 111.99 322.19 108.87 323.80 C 95.12 331.76 81.35 339.69 67.56 347.59 C 63.40 350.27 57.25 347.77 56.10 342.98 C 55.00 339.26 57.24 335.31 60.65 333.77 C 74.93 325.75 88.89 317.12 103.33 309.43 Z" />
<path fill="#2b2e63" opacity="1.00" d=" M 404.35 309.43 C 406.73 308.64 409.26 309.40 411.32 310.68 C 424.85 318.52 438.45 326.24 451.96 334.12 C 455.37 335.88 457.11 340.23 455.69 343.84 C 454.17 348.25 448.32 350.17 444.44 347.63 C 430.30 339.45 416.09 331.38 402.01 323.09 C 396.78 319.79 398.42 310.91 404.35 309.43 Z" />
</g>
<g id="#ecc25dff">
<path fill="#ecc25d" opacity="1.00" d=" M 220.94 129.93 C 253.60 119.13 290.99 124.37 319.47 143.66 C 342.61 159.05 359.93 182.93 367.38 209.71 C 372.15 226.51 373.04 244.31 370.37 261.54 C 367.22 282.51 360.07 303.27 347.40 320.44 C 338.40 331.86 329.02 343.07 321.65 355.64 C 311.22 372.87 305.32 392.82 304.92 412.96 C 272.31 413.01 239.69 413.01 207.08 412.96 C 206.70 397.79 203.48 382.63 197.21 368.78 C 190.24 353.06 179.76 339.27 169.03 325.96 C 151.20 304.84 142.45 277.31 140.37 250.06 C 138.96 228.27 143.53 206.06 153.77 186.75 C 167.71 160.11 192.23 139.06 220.94 129.93 M 232.33 144.45 C 211.15 149.71 192.10 162.58 178.68 179.71 C 162.73 199.65 154.93 225.65 156.31 251.07 C 157.60 272.59 163.75 294.18 175.77 312.22 C 183.21 322.49 191.61 332.10 198.14 343.02 C 208.28 358.83 214.58 377.09 216.38 395.80 C 224.56 396.28 232.77 395.84 240.97 396.01 C 259.20 395.86 277.44 396.27 295.66 395.79 C 296.95 381.91 300.79 368.31 306.78 355.73 C 312.44 344.24 319.77 333.67 327.66 323.61 C 332.67 317.23 337.84 310.90 341.56 303.65 C 350.60 286.23 355.48 266.67 355.96 247.06 C 356.46 224.30 349.43 201.41 335.99 183.02 C 325.47 168.47 311.12 156.62 294.63 149.47 C 275.18 140.99 252.88 139.15 232.33 144.45 Z" />
</g>
<g id="#ffdb7cff">
<path fill="#ffdb7c" opacity="1.00" d=" M 232.33 144.45 C 252.88 139.15 275.18 140.99 294.63 149.47 C 311.12 156.62 325.47 168.47 335.99 183.02 C 349.43 201.41 356.46 224.30 355.96 247.06 C 355.48 266.67 350.60 286.23 341.56 303.65 C 337.84 310.90 332.67 317.23 327.66 323.61 C 319.77 333.67 312.44 344.24 306.78 355.73 C 300.79 368.31 296.95 381.91 295.66 395.79 C 277.44 396.27 259.20 395.86 240.97 396.01 C 232.77 395.84 224.56 396.28 216.38 395.80 C 214.58 377.09 208.28 358.83 198.14 343.02 C 191.61 332.10 183.21 322.49 175.77 312.22 C 163.75 294.18 157.60 272.59 156.31 251.07 C 154.93 225.65 162.73 199.65 178.68 179.71 C 192.10 162.58 211.15 149.71 232.33 144.45 M 303.23 220.19 C 279.60 243.83 255.85 267.36 232.41 291.18 C 226.62 286.11 221.47 280.35 215.93 275.01 C 212.85 272.17 210.26 268.73 206.68 266.47 C 206.63 266.45 206.53 266.40 206.48 266.38 C 203.83 265.61 200.59 265.62 198.50 267.68 C 194.93 270.31 194.53 276.14 197.69 279.26 C 206.81 288.49 216.06 297.60 225.19 306.82 C 226.18 307.81 227.20 308.78 228.39 309.54 C 228.43 309.56 228.52 309.60 228.57 309.63 C 231.68 310.99 235.63 310.49 237.95 307.88 C 262.49 283.44 286.93 258.89 311.45 234.43 C 314.05 231.99 317.08 229.05 316.38 225.10 C 315.92 219.02 307.54 215.72 303.23 220.19 Z" />
</g>
<g id="#f06e61ff">
<path fill="#f06e61" opacity="1.00" d=" M 206.48 266.38 C 206.53 266.40 206.63 266.45 206.68 266.47 C 206.63 266.45 206.53 266.40 206.48 266.38 Z" />
<path fill="#f06e61" opacity="1.00" d=" M 228.39 309.54 C 228.43 309.56 228.52 309.60 228.57 309.63 C 228.52 309.60 228.43 309.56 228.39 309.54 Z" />
<path fill="#f06e61" opacity="1.00" d=" M 220.95 485.75 C 244.32 485.70 267.68 485.71 291.04 485.75 C 286.46 492.64 277.91 495.82 269.94 496.32 C 261.98 496.50 254.01 496.34 246.05 496.41 C 236.76 496.78 226.43 493.73 220.95 485.75 Z" />
</g>
<g id="#edecedff">
<path fill="#edeced" opacity="1.00" d=" M 203.76 428.58 C 238.57 428.57 273.37 428.57 308.17 428.58 C 308.18 432.89 308.17 437.21 308.18 441.53 C 273.37 441.53 238.56 441.54 203.75 441.52 C 203.76 437.21 203.75 432.89 203.76 428.58 Z" />
<path fill="#edeced" opacity="1.00" d=" M 203.75 457.19 C 238.56 457.16 273.37 457.16 308.18 457.19 C 308.12 459.82 308.33 462.46 308.06 465.08 C 307.61 468.37 304.22 470.57 301.01 470.20 C 271.02 470.20 241.03 470.20 211.04 470.20 C 207.80 470.59 204.32 468.42 203.87 465.08 C 203.61 462.46 203.80 459.82 203.75 457.19 Z" />
</g>
</svg>
