<?xml version="1.0" encoding="UTF-8" ?>
<!DOCTYPE svg PUBLIC "-//W3C//DTD SVG 1.1//EN" "http://www.w3.org/Graphics/SVG/1.1/DTD/svg11.dtd">
<svg width="512pt" height="512pt" viewBox="0 0 512 512" version="1.1" xmlns="http://www.w3.org/2000/svg">
<g id="#020288ff">
<path fill="#020288" opacity="1.00" d=" M 412.19 6.24 C 414.44 4.02 416.69 1.37 419.98 0.80 C 425.30 -0.46 431.12 3.50 431.81 8.94 C 433.48 21.96 434.80 35.03 436.33 48.07 C 436.29 49.86 437.73 51.02 438.85 52.20 C 446.40 59.64 453.87 67.15 461.35 74.65 C 462.34 75.93 463.98 76.13 465.49 76.31 C 477.97 77.61 490.42 79.13 502.89 80.54 C 507.56 80.89 511.32 84.76 512.00 89.32 L 512.00 91.56 C 511.53 94.94 509.26 97.58 506.86 99.82 C 493.14 113.25 479.88 127.15 465.92 140.32 C 484.45 173.17 495.43 210.25 497.59 247.91 C 500.18 291.70 491.21 336.22 471.14 375.27 C 440.77 435.41 384.98 482.13 320.30 501.12 C 276.49 514.09 229.09 514.82 184.93 503.08 C 140.11 491.37 98.95 466.51 67.31 432.72 C 46.34 410.45 29.51 384.28 18.06 355.91 C 6.89 328.49 1.00 299.04 0.00 269.47 L 0.00 254.20 C 0.96 234.90 3.57 215.63 8.78 196.99 C 19.75 156.17 41.68 118.44 71.35 88.37 C 98.18 61.05 131.34 39.87 167.61 27.50 C 200.28 16.21 235.33 11.94 269.77 14.78 C 305.71 17.70 340.93 28.64 372.29 46.44 C 385.28 32.74 398.96 19.71 412.19 6.24 M 389.38 57.34 C 384.83 61.93 382.27 68.44 382.66 74.91 C 382.89 78.68 383.45 82.43 383.88 86.19 C 394.96 75.30 405.95 64.31 416.86 53.25 C 415.93 46.27 415.25 39.27 414.41 32.28 C 406.10 40.67 397.69 48.96 389.38 57.34 M 198.14 39.65 C 168.31 46.39 139.91 59.29 115.15 77.21 C 77.05 104.64 47.61 143.98 32.43 188.43 C 21.20 220.83 17.60 255.79 21.66 289.83 C 25.72 324.37 37.92 357.93 56.95 387.04 C 84.60 429.67 126.78 462.71 174.92 479.03 C 221.71 495.22 273.77 495.44 320.76 479.89 C 360.07 466.95 395.68 443.03 422.63 411.62 C 449.36 380.68 467.63 342.44 474.57 302.13 C 483.90 250.01 474.26 194.77 447.77 148.92 C 443.20 149.73 438.53 150.06 433.90 149.55 C 425.30 148.64 416.72 147.59 408.12 146.65 C 405.38 149.39 402.64 152.12 399.90 154.86 C 389.50 165.27 379.08 175.64 368.68 186.05 C 388.36 216.39 395.59 254.40 388.52 289.85 C 382.15 323.12 363.20 353.69 336.49 374.47 C 314.64 391.65 287.64 402.18 259.92 404.20 C 232.16 406.38 203.81 400.17 179.57 386.46 C 151.57 370.84 129.18 345.44 117.20 315.70 C 106.08 288.39 103.93 257.58 110.95 228.95 C 118.29 198.60 136.13 170.98 160.58 151.60 C 184.38 132.55 214.46 121.50 244.95 120.75 C 273.61 119.81 302.48 127.89 326.45 143.63 C 336.90 133.27 347.26 122.82 357.72 112.46 C 360.41 109.72 363.16 107.05 365.82 104.28 C 365.22 99.50 364.71 94.72 364.16 89.95 C 363.29 81.56 361.56 73.01 363.60 64.65 C 314.29 35.69 253.80 26.85 198.14 39.65 M 303.22 195.18 C 290.00 208.58 279.18 224.28 271.06 241.25 C 288.90 232.78 305.26 221.22 319.18 207.21 C 360.30 166.16 401.39 125.11 442.49 84.05 C 437.83 79.37 433.14 74.72 428.48 70.04 C 386.71 111.73 344.92 153.41 303.22 195.18 M 426.22 128.57 C 430.14 128.97 434.05 129.59 437.99 129.79 C 444.55 130.08 451.05 127.33 455.62 122.67 C 463.84 114.49 472.03 106.29 480.23 98.09 C 473.20 97.27 466.16 96.48 459.13 95.69 C 448.19 106.68 437.19 117.60 426.22 128.57 M 198.60 151.57 C 170.64 164.19 147.81 187.73 136.14 216.11 C 124.80 243.25 123.88 274.53 133.53 302.31 C 142.33 328.02 160.09 350.51 182.95 365.17 C 206.69 380.62 235.94 387.26 264.03 383.71 C 292.11 380.36 318.76 366.72 338.05 346.06 C 356.71 326.31 368.49 300.16 370.70 273.06 C 372.89 247.95 367.02 222.24 354.14 200.58 C 343.32 211.13 333.07 222.28 321.63 232.18 C 304.16 247.03 284.01 258.74 262.40 266.43 C 260.81 267.05 258.98 267.37 257.77 268.68 C 254.16 272.12 250.84 275.86 247.10 279.16 C 243.29 282.40 237.06 281.95 233.71 278.26 C 230.27 274.83 229.98 268.81 233.18 265.13 C 236.47 261.43 240.19 258.13 243.61 254.56 C 244.62 253.66 245.00 252.33 245.46 251.11 C 253.13 228.94 265.15 208.33 280.34 190.48 C 290.29 179.14 301.41 168.92 311.95 158.15 C 278.27 137.56 234.43 135.00 198.60 151.57 Z" />
</g>
<g id="#ffbdbcff">
<path fill="#ffbdbc" opacity="1.00" d=" M 156.76 101.91 C 188.37 83.64 225.48 75.17 261.89 77.76 C 296.27 79.99 329.82 92.28 357.72 112.46 C 347.26 122.82 336.90 133.27 326.45 143.63 C 302.48 127.89 273.61 119.81 244.95 120.75 C 214.46 121.50 184.38 132.55 160.58 151.60 C 136.13 170.98 118.29 198.60 110.95 228.95 C 103.93 257.58 106.08 288.39 117.20 315.70 C 129.18 345.44 151.57 370.84 179.57 386.46 C 203.81 400.17 232.16 406.38 259.92 404.20 C 287.64 402.18 314.64 391.65 336.49 374.47 C 363.20 353.69 382.15 323.12 388.52 289.85 C 395.59 254.40 388.36 216.39 368.68 186.05 C 379.08 175.64 389.50 165.27 399.90 154.86 C 409.92 168.81 417.98 184.15 423.79 200.32 C 440.80 247.32 437.55 301.21 414.84 345.76 C 397.52 380.24 369.17 409.04 334.97 426.89 C 294.02 448.58 244.79 453.76 200.15 441.44 C 170.19 433.32 142.41 417.39 120.10 395.81 C 94.66 371.32 76.40 339.43 68.37 305.03 C 59.69 268.21 62.59 228.72 76.81 193.65 C 92.17 155.25 120.88 122.43 156.76 101.91 Z" />
<path fill="#ffbdbc" opacity="1.00" d=" M 234.02 185.49 C 249.51 182.44 265.83 184.34 280.34 190.48 C 265.15 208.33 253.13 228.94 245.46 251.11 C 245.00 252.33 244.62 253.66 243.61 254.56 C 240.19 258.13 236.47 261.43 233.18 265.13 C 229.98 268.81 230.27 274.83 233.71 278.26 C 237.06 281.95 243.29 282.40 247.10 279.16 C 250.84 275.86 254.16 272.12 257.77 268.68 C 258.98 267.37 260.81 267.05 262.40 266.43 C 284.01 258.74 304.16 247.03 321.63 232.18 C 332.01 256.78 328.91 286.54 313.14 308.16 C 303.04 322.42 288.05 333.15 271.27 338.05 C 253.44 343.35 233.72 342.05 216.79 334.34 C 201.44 327.46 188.44 315.52 180.26 300.83 C 173.48 288.75 170.03 274.84 170.36 260.99 C 170.64 243.83 176.84 226.86 187.64 213.53 C 199.17 199.13 215.88 188.94 234.02 185.49 Z" />
</g>
</svg>
